<svg id="圖層_1" xmlns="http://www.w3.org/2000/svg" viewBox="0 0 185 51"><style>.st0{fill:#fff}</style><path class="st0" d="M110.3 44.7H109V39h-2.3v-1h5.8v1h-2.3v5.7zM115 43.9c.2 0 .5 0 .8-.1.3 0 .5-.1.8-.2v1c-.2.1-.4.1-.7.2-.3.1-.7.1-1 .1-.4 0-.7 0-1-.1-.3-.1-.6-.2-.8-.4-.2-.2-.4-.5-.6-.8-.1-.3-.2-.7-.2-1.2 0-.4.1-.8.2-1.2.1-.3.3-.6.5-.8.2-.2.5-.4.8-.5.3-.1.6-.2.9-.2.3 0 .6 0 .9.1.3.1.5.2.7.4.2.2.3.5.5.8.1.3.2.7.2 1.1v.4h-3.3c0 .2.1.4.2.6.1.2.2.3.3.4.1.1.3.2.5.2-.1.2.1.2.3.2zm-.4-3.3c-.2 0-.3 0-.4.1-.1.1-.2.1-.3.2-.1.1-.2.2-.2.3-.1.1-.1.3-.1.4h2c0-.1 0-.3-.1-.4 0-.1-.1-.2-.2-.3-.1-.1-.2-.2-.3-.2-.2 0-.3-.1-.4-.1zM121.3 44.6c-.2.1-.3.1-.6.2-.2 0-.5.1-.7.1-.4 0-.7-.1-1-.2-.3-.1-.6-.3-.8-.5-.2-.2-.4-.5-.6-.8-.1-.3-.2-.7-.2-1.1 0-.5.1-.9.2-1.2.2-.3.4-.6.6-.8.2-.2.5-.4.8-.5.3-.1.6-.2.9-.2.2 0 .4 0 .7.1.2 0 .4.1.6.2v1c-.2-.1-.3-.1-.5-.2-.2 0-.4-.1-.6-.1s-.4 0-.6.1c-.2.1-.3.2-.5.3-.1.1-.2.3-.3.5-.1.2-.1.5-.1.8 0 .2 0 .4.1.6.1.2.2.4.3.5.1.1.3.2.5.3.2.1.4.1.7.1.2 0 .4 0 .6-.1.2 0 .4-.1.5-.2v1.1zM123.5 39.4v1l.3-.3c.1-.1.2-.2.3-.2.1-.1.3-.1.4-.2.2 0 .3-.1.5-.1h.5c.2 0 .3.1.4.2.1.1.3.2.4.3.1.1.2.2.3.4.1.1.1.3.1.4V44.7h-1.2v-3-.4c0-.1 0-.2-.1-.3-.1-.1-.2-.3-.3-.3-.1-.1-.3-.1-.5-.1s-.5.1-.7.2c-.2.1-.4.3-.6.5v3.4h-1.2v-7.4h1.2v2.1zM129.1 40.5l.3-.3c.1-.1.2-.2.4-.3.1-.1.3-.1.5-.2.2 0 .4-.1.6-.1.2 0 .4 0 .5.1.2 0 .3.1.5.2.1.1.3.2.4.3.1.1.2.3.3.5 0 .1.1.2.1.3v3.6h-1.2v-3-.3c0-.1 0-.2-.1-.3-.1-.2-.2-.3-.3-.3-.1-.1-.3-.1-.5-.1s-.5.1-.7.2c-.2.1-.4.3-.6.5v3.4h-1.2v-4.9h1v.7zM138.4 42.3c0 .4-.1.7-.2 1.1-.1.3-.3.6-.5.8-.2.2-.5.4-.8.5-.3.1-.7.2-1 .2-.4 0-.8-.1-1.1-.2-.3-.1-.6-.3-.8-.5-.2-.2-.4-.5-.5-.8-.1-.3-.2-.7-.2-1.1 0-.4.1-.7.2-1.1.1-.3.3-.6.5-.8.2-.2.5-.4.8-.5.3-.1.7-.2 1-.2.4 0 .8.1 1.1.2.3.1.6.3.8.5.2.2.4.5.5.8.2.3.2.7.2 1.1zm-1.2 0c0-.3 0-.5-.1-.7-.1-.2-.1-.4-.3-.5-.1-.1-.2-.2-.4-.3-.2-.1-.3-.1-.5-.1s-.3 0-.5.1-.3.2-.4.3c-.1.1-.2.3-.3.5-.1.2-.1.4-.1.7s0 .5.1.7c.1.2.2.4.3.5.1.1.2.2.4.3.2.1.3.1.5.1s.4 0 .5-.1c.2-.1.3-.2.4-.3.1-.1.2-.3.3-.5 0-.2.1-.5.1-.7zM139.4 44.7v-7.4h1.2v7.4h-1.2zM146.6 42.3c0 .4-.1.7-.2 1.1-.1.3-.3.6-.5.8-.2.2-.5.4-.8.5-.3.1-.7.2-1 .2-.4 0-.8-.1-1.1-.2-.3-.1-.6-.3-.8-.5-.2-.2-.4-.5-.5-.8-.1-.3-.2-.7-.2-1.1 0-.4.1-.7.2-1.1.1-.3.3-.6.5-.8.2-.2.5-.4.8-.5.3-.1.7-.2 1-.2.4 0 .8.1 1.1.2.3.1.6.3.8.5.2.2.4.5.5.8.1.3.2.7.2 1.1zm-1.3 0c0-.3 0-.5-.1-.7-.1-.2-.1-.4-.3-.5-.1-.1-.2-.2-.4-.3-.2-.1-.3-.1-.5-.1s-.3 0-.5.1-.3.2-.4.3c-.1.1-.2.3-.3.5-.1.2-.1.4-.1.7s0 .5.1.7c.1.2.2.4.3.5.1.1.2.2.4.3.2.1.3.1.5.1s.4 0 .5-.1c.2-.1.3-.2.4-.3.1-.1.2-.3.3-.5.1-.2.1-.5.1-.7zM150.7 44.9v-.3-.3c-.1.1-.2.1-.3.2-.1.1-.2.1-.3.2-.1 0-.2.1-.4.1h-.4c-.3 0-.5 0-.8-.1-.3-.1-.5-.2-.7-.4-.2-.2-.4-.5-.5-.8-.1-.3-.2-.7-.2-1.1s.1-.8.2-1.2c.1-.3.3-.6.5-.8.2-.2.4-.4.7-.5.3-.1.5-.2.8-.2.3 0 .6.1.8.2.2.1.4.3.6.5l.1-.6h1.1v5c0 .3 0 .5-.1.7 0 .2-.1.4-.2.6-.1.2-.3.4-.4.5-.2.1-.4.3-.6.3-.2.1-.5.2-.7.2-.3 0-.5.1-.8.1h-.5c-.2 0-.3 0-.5-.1-.1 0-.3 0-.4-.1-.1 0-.2-.1-.3-.1v-1c.2.1.5.1.7.2.3 0 .5.1.8.1.6 0 1-.1 1.3-.3.3-.2.5-.5.5-1zm-1.1-1h.4c.1 0 .2-.1.3-.1.1 0 .2-.1.3-.2l.2-.2v-2.2c-.1-.2-.3-.3-.5-.4-.2-.1-.4-.2-.6-.2h-.2c-.1 0-.2.1-.3.1-.1 0-.2.1-.2.2-.1.1-.1.2-.2.3-.1.1-.1.3-.1.4 0 .2-.1.4-.1.6 0 .2 0 .5.1.7 0 .2.1.4.2.5.1.1.2.2.4.3 0 .2.1.2.3.2zM153.1 37.4h1.3v1.3h-1.3v-1.3zm0 2.4h1.2v4.9h-1.2v-4.9zM158.1 43.9c.2 0 .5 0 .8-.1.3 0 .5-.1.8-.2v1c-.2.1-.4.1-.7.2-.3.1-.7.1-1 .1-.4 0-.7 0-1-.1-.3-.1-.6-.2-.8-.4-.2-.2-.4-.5-.6-.8-.1-.3-.2-.7-.2-1.2 0-.4.1-.8.2-1.2.1-.3.3-.6.5-.8.2-.2.5-.4.8-.5.3-.1.6-.2.9-.2.3 0 .6 0 .9.1.3.1.5.2.7.4.2.2.3.5.5.8.1.3.2.7.2 1.1v.4h-3.3c0 .2.1.4.2.6.1.2.2.3.3.4.1.1.3.2.5.2-.1.2.1.2.3.2zm-.5-3.3c-.2 0-.3 0-.4.1-.1.1-.2.1-.3.2-.1.1-.2.2-.2.3-.1.1-.1.3-.1.4h2c0-.1 0-.3-.1-.4 0-.1-.1-.2-.2-.3-.1-.1-.2-.2-.3-.2-.1 0-.2-.1-.4-.1zM163 43.3c0-.1 0-.2-.1-.3l-.2-.2c-.1 0-.2-.1-.3-.1-.1 0-.3-.1-.4-.1-.2 0-.4-.1-.5-.2-.2-.1-.3-.1-.4-.2-.1-.1-.2-.2-.3-.4-.1-.2-.1-.3-.1-.6s.1-.5.2-.7c.1-.2.2-.4.4-.5l.6-.3c.2-.1.5-.1.7-.1.3 0 .6 0 .9.1.3 0 .5.1.7.2v1c-.1 0-.2-.1-.4-.1s-.3-.1-.4-.1c-.1 0-.3 0-.4-.1h-.8c-.1 0-.2.1-.2.1-.1 0-.1.1-.1.2v.2c0 .1 0 .2.1.3.1.1.1.1.3.2.1 0 .2.1.3.1.1 0 .2.1.3.1.2 0 .3.1.5.1.2.1.3.1.5.2.1.1.3.2.3.4.1.2.1.4.1.6 0 .3-.1.5-.2.7-.1.2-.3.4-.5.5-.2.1-.4.2-.7.3-.3.1-.6.1-.9.1-.3 0-.6 0-.9-.1-.3 0-.5-.1-.6-.2v-1c.3.1.5.2.8.2.2 0 .4.1.6.1h.4c.1 0 .2-.1.3-.1.1 0 .2-.1.2-.2.2.1.2 0 .2-.1zM165.4 43.4h1.4l-1.1 3.5h-1.3l1-3.5zM170.3 44.7v-6.8h1.3v6.8h-1.3zM174 40.5l.3-.3c.1-.1.2-.2.4-.3.1-.1.3-.1.5-.2.2 0 .4-.1.6-.1.2 0 .4 0 .5.1.2 0 .3.1.5.2.1.1.3.2.4.3.1.1.2.3.3.5 0 .1.1.2.1.3v3.6h-1.2v-3-.3c0-.1 0-.2-.1-.3-.1-.2-.2-.3-.3-.3-.1-.1-.3-.1-.5-.1s-.5.1-.7.2c-.2.1-.4.3-.6.5v3.4H173v-4.9h1v.7zM182.2 44.6c-.2.1-.3.1-.6.2-.2 0-.5.1-.7.1-.4 0-.7-.1-1-.2-.3-.1-.6-.3-.8-.5-.2-.2-.4-.5-.6-.8-.1-.3-.2-.7-.2-1.1 0-.5.1-.9.2-1.2.2-.3.4-.6.6-.8.2-.2.5-.4.8-.5.3-.1.6-.2.9-.2.2 0 .4 0 .7.1.2 0 .4.1.6.2v1c-.2-.1-.3-.1-.5-.2-.2 0-.4-.1-.6-.1-.2 0-.4 0-.6.1-.2.1-.3.2-.5.3-.1.1-.2.3-.3.5-.1.2-.1.5-.1.8 0 .2 0 .4.1.6.1.2.2.4.3.5.1.1.3.2.5.3.2.1.4.1.7.1.2 0 .4 0 .6-.1.2 0 .4-.1.5-.2v1.1zM183.3 43.4h1.4v1.4h-1.4v-1.4z"/><g><path class="st0" d="M90.4 29.7c-.5.5-1.2.8-1.8 1.1-.7.3-1.4.4-2.2.4-1.2 0-2.2-.4-2.8-1.2-.7-.8-1-2-1-3.5s.4-2.7 1.1-3.6c.7-.8 1.6-1.2 2.8-1.2.4 0 .8.1 1.3.2.4.1.8.3 1.1.4.4.2.7.4 1 .5.3.2.5.3.7.5l.1.1h.6v-3.2l-.2-.1c-.6-.3-1.3-.5-2.1-.8-.8-.2-1.6-.3-2.4-.3-1 0-2 .2-2.9.5-.9.3-1.7.8-2.3 1.5-.6.6-1.1 1.4-1.5 2.3-.4.9-.5 2-.5 3.2 0 1.2.2 2.3.5 3.3.1.4.3.7.5 1h-11v-6h7l2.7-2.9h-9.7v-4.2h9.5l2.7-2.9H65.9v18.8h12.9l1.9-2.2.6.6c.6.6 1.4 1.1 2.3 1.4.9.3 1.9.5 2.9.5.5 0 1 0 1.4-.1.3-.1.7-.2 1.2-.3.3-.1.7-.2 1.1-.4.4-.1.7-.3.9-.4l.2-.1v-3.2h-.6l-.3.3z"/><path class="st0" d="M98 19c-2.1 0-3.8.7-5 2-1.3 1.3-1.9 3.2-1.9 5.5s.6 4.1 1.9 5.5c1.2 1.4 3 2 5.1 2 2.1 0 3.8-.7 5-2 1.3-1.3 1.9-3.2 1.9-5.5 0-2.4-.6-4.2-1.9-5.5-1.3-1.3-3-2-5.1-2zm-2.7 3.8c.6-.8 1.5-1.1 2.7-1.1 1.2 0 2.1.4 2.7 1.1.6.8 1 2 1 3.7 0 1.6-.3 2.9-1 3.7-.6.8-1.5 1.2-2.7 1.2-1.2 0-2.1-.4-2.7-1.2-.6-.8-1-2-1-3.6 0-1.7.4-3 1-3.8zM152.7 14.7h3.5v3.1h-3.5zM183.7 21.7c-.3-.7-.7-1.2-1.3-1.6-.6-.4-1.3-.7-2-.8-.7-.2-1.6-.2-2.6-.2-.9 0-1.7.1-2.6.2-.9.1-1.5.3-2 .4l-.3.1v3h.6c.7-.3 1.5-.5 2.3-.7.7-.2 1.4-.2 1.9-.2s.9 0 1.4.1c.4.1.8.2 1 .3.3.1.5.3.6.6.1.3.2.7.2 1.1-1.2.1-2.3.2-3.3.3-1.2.1-2.2.4-3 .7-1 .4-1.7 1-2.2 1.7-.5.7-.7 1.6-.7 2.6 0 .7.1 1.3.4 1.9.3.6.6 1.1 1 1.5.4.4 1 .7 1.6 1 .6.2 1.2.3 1.9.3.8 0 1.4-.1 1.8-.2.4-.1.9-.3 1.3-.5.3-.2.7-.4 1-.6.1-.1.2-.1.2-.2v2h3.2V24c0-.9-.2-1.6-.4-2.3zm-2.8 4.9v3.2c-.5.4-1 .7-1.6 1-.6.3-1.2.4-2 .4s-1.4-.2-1.8-.5c-.4-.3-.6-.8-.6-1.5 0-.6.2-1 .5-1.3.4-.3.9-.6 1.5-.8.5-.1 1.2-.3 2.1-.3.8-.1 1.4-.2 1.9-.2zM165.7 19c-.8 0-1.7.2-2.4.5-.5.2-1.1.6-1.7 1v-1.1h-3.2v15.2h3.2V23.4c.6-.4 1.1-.8 1.7-1 .6-.3 1.2-.4 1.8-.4.6 0 1 .1 1.3.2.3.1.5.3.7.6.2.3.3.7.3 1.2.1.5.1 1.1.1 1.7v9h3.2V24.5c0-1.8-.4-3.1-1.3-4.1-.9-.9-2.1-1.4-3.7-1.4zM152.9 19.4h3.2v15.2h-3.2zM149.4 20.3c-.4-.4-.9-.8-1.5-1-.6-.2-1.2-.3-1.8-.3-.9 0-1.7.2-2.5.6-.6.3-1.3.8-1.9 1.5-.4-.7-.9-1.2-1.5-1.5-.7-.4-1.6-.6-2.5-.6-.8 0-1.6.2-2.3.5-.5.2-.9.5-1.4.9v-1.1h-3.2v15.2h3.2V23.4c.5-.4 1-.8 1.5-1 .5-.3 1-.4 1.5-.4s.9.1 1.2.2c.3.1.4.3.6.6.1.3.2.6.3 1.1.1.5.1 1.1.1 1.7v9.1h3.2V24.4v-1c.5-.5 1.1-.8 1.6-1.1.5-.3 1-.4 1.5-.4s.9.1 1.2.2c.3.1.5.3.6.6.1.3.2.6.3 1.1.1.5.1 1.1.1 1.7v9.1h3.2V24.4c0-1-.1-1.8-.3-2.4-.5-.7-.8-1.3-1.2-1.7zM125.7 29.7c-.5.4-1.1.7-1.7 1-.6.3-1.2.4-1.8.4-.6 0-1-.1-1.3-.2-.3-.1-.5-.3-.7-.6-.2-.3-.3-.7-.3-1.1-.1-.5-.1-1-.1-1.7v-8.1h-3.2v9.2c0 .9.1 1.6.3 2.3h-7.8v-16h-3.3v18.8h10l1.6-1.9c.2.3.4.7.7.9.5.5 1 .8 1.6 1 .6.2 1.3.3 1.9.3.9 0 1.7-.2 2.4-.5.5-.2 1.1-.6 1.7-1v2.1h3.2V19.4h-3.2v10.3z"/></g><g><path class="st0" d="M34.1 43.3v7.2l24.3-24.7L33.7.6 13.2 21.5v8.4L37.6 5.4V19L23.7 33l.1 7.1 24.1-24.4.1 13.6-13.9 14z"/><path class="st0" d="M.3 25.2l24.8 25.2 20.4-20.9v-8.4L21.2 45.6 21.1 32 35 18v-7.1L10.8 35.3l-.1-13.6 13.9-14V.5L.3 25.2z"/></g></svg>