<svg xmlns="http://www.w3.org/2000/svg" xmlns:xlink="http://www.w3.org/1999/xlink" viewBox="0 0 581 150">
	<path fill="none" stroke="#ffffff" stroke-width="1" stroke-miterlimit="10" d="M255.5,36.9h-24.3v15.3h28.7v11.9h-44.1v-64H260V12h-28.7v13.5h24.3V36.9z"/>
	<path fill="none" stroke="#ffffff" stroke-width="1" stroke-miterlimit="10" d="M317.3,12h-19.2v52.1h-15.4V12h-18.9V0.1h53.5V12z"/>
	<path fill="none" stroke="#ffffff" stroke-width="1" stroke-miterlimit="10" d="M340.2,64.1h-15.4v-64h15.4V64.1z"/>
	<path fill="none" stroke="#ffffff" stroke-width="1" stroke-miterlimit="10" d="M35.1,132c0-2.3-0.8-4-2.4-5.3c-1.6-1.3-4.4-2.6-8.4-3.9c-4-1.3-7.3-2.7-9.8-3.9C6.2,114.9,2,109.3,2,102.2
		c0-3.5,1-6.7,3.1-9.4c2.1-2.7,5-4.8,8.8-6.3c3.8-1.5,8-2.3,12.7-2.3c4.6,0,8.7,0.8,12.4,2.5s6.5,4,8.5,7s3,6.5,3,10.4H35.2
		c0-2.6-0.8-4.6-2.4-6.1c-1.6-1.4-3.8-2.2-6.5-2.2c-2.8,0-4.9,0.6-6.5,1.8c-1.6,1.2-2.4,2.8-2.4,4.6c0,1.6,0.9,3.1,2.6,4.5
		c1.8,1.3,4.8,2.7,9.3,4.1c4.4,1.4,8.1,3,10.9,4.6c6.9,4,10.4,9.5,10.4,16.5c0,5.6-2.1,10-6.3,13.2s-10,4.8-17.4,4.8
		c-5.2,0-9.9-0.9-14.1-2.8c-4.2-1.9-7.4-4.4-9.5-7.6c-2.1-3.2-3.2-7-3.2-11.2h15.5c0,3.4,0.9,6,2.7,7.6c1.8,1.6,4.7,2.4,8.6,2.4
		c2.5,0,4.6-0.5,6-1.6C34.4,135.6,35.1,134,35.1,132z"/>
	<path fill="none" stroke="#ffffff" stroke-width="1" stroke-miterlimit="10" d="M78.7,85.1L93,129.6l14.2-44.5h20.3v64h-15.5v-14.9l1.5-30.6l-15.5,45.5H87.9l-15.5-45.6l1.5,30.6v14.9H58.5
		v-64H78.7z"/>
	<path fill="none" stroke="#ffffff" stroke-width="1" stroke-miterlimit="10" d="M174.5,137.1h-21.1l-3.7,12h-16.5l23.5-64h14.5l23.6,64h-16.6L174.5,137.1z M157,125.2h13.8l-6.9-22.2
		L157,125.2z"/>
	<path fill="none" stroke="#ffffff" stroke-width="1" stroke-miterlimit="10" d="M223.2,126.4h-8.3v22.6h-15.4v-64h25.2c7.6,0,13.5,1.7,17.8,5c4.3,3.4,6.4,8.1,6.4,14.3
		c0,4.4-0.9,8.1-2.7,11.1c-1.8,2.9-4.6,5.3-8.5,7.1l13.4,25.8v0.7h-16.5L223.2,126.4z M214.9,114.6h9.8c2.9,0,5.1-0.8,6.6-2.3
		c1.5-1.5,2.2-3.7,2.2-6.5c0-2.8-0.7-4.9-2.2-6.5c-1.5-1.6-3.7-2.4-6.6-2.4h-9.8V114.6z"/>
	<path fill="none" stroke="#ffffff" stroke-width="1" stroke-miterlimit="10" d="M306.2,97H287v52.1h-15.4V97h-18.9V85.1h53.5V97z"/>
	<path fill="none" stroke="#ffffff" stroke-width="1" stroke-miterlimit="10" d="M385.9,149.1h-15.3v-26.7h-22.7v26.7h-15.4v-64h15.4v25.4h22.7V85.1h15.3V149.1z"/>
	<path fill="none" stroke="#ffffff" stroke-width="1" stroke-miterlimit="10" d="M449.9,118.4c0,6.2-1.2,11.8-3.5,16.6s-5.6,8.5-9.9,11.1c-4.3,2.6-9.1,3.9-14.6,3.9s-10.3-1.3-14.5-3.8
		s-7.5-6.1-9.9-10.7c-2.4-4.7-3.6-10-3.7-16v-3.6c0-6.3,1.1-11.8,3.5-16.6c2.3-4.8,5.6-8.5,9.9-11.1s9.2-3.9,14.7-3.9
		c5.4,0,10.3,1.3,14.5,3.9s7.6,6.2,9.9,11c2.4,4.8,3.6,10.2,3.6,16.4V118.4z M434.2,115.7c0-6.4-1.1-11.2-3.2-14.5
		c-2.1-3.3-5.2-4.9-9.1-4.9c-7.7,0-11.8,5.8-12.3,17.4l0,4.7c0,6.3,1,11.1,3.1,14.5s5.2,5.1,9.3,5.1c3.9,0,6.9-1.7,9-5
		s3.2-8.1,3.2-14.3V115.7z"/>
	<path fill="none" stroke="#ffffff" stroke-width="1" stroke-miterlimit="10" d="M478.1,85.1l14.3,44.5l14.2-44.5h20.3v64h-15.5v-14.9l1.5-30.6l-15.5,45.5h-10.2l-15.5-45.6l1.5,30.6v14.9
		h-15.4v-64H478.1z"/>
	<path fill="none" stroke="#ffffff" stroke-width="1" stroke-miterlimit="10" d="M576.4,121.9h-24.3v15.3h28.7v11.9h-44.1v-64h44.2V97h-28.7v13.5h24.3V121.9z"/>
</svg>
