<svg xmlns="http://www.w3.org/2000/svg" viewBox="0 0 182.1 168.4">
	<path fill="none" stroke="#005335" stroke-width="4" stroke-linecap="round" stroke-linejoin="round" stroke-miterlimit="10" d="M37.9 123.4c-20.2-2.6-35.4-19.9-35.4-40.3 0-15 8.1-28.6 21.3-35.7-.1-.7-.1-1.4-.1-2.1 0-13.8 11.2-25.1 25.1-25.1 2.8 0 5.6.5 8.2 1.4 9.6-12 24.4-19.2 39.7-19.2 24.8 0 46.3 18.4 50 42.9 18.8 3.2 32.9 19.9 32.9 39 0 21.8-17.7 39.5-39.5 39.5"/>
	<path id="cloud_links" fill="none" stroke="#005335" stroke-width="4" stroke-linecap="round" stroke-linejoin="round" stroke-miterlimit="10" d="M63.9 99.3c-9.8 0-17.8 8-17.8 17.8s8 17.8 17.8 17.8 17.8-8 17.8-17.8-8-17.8-17.8-17.8zM108.9 61c-8.3 0-15 6.7-15 15s6.7 15 15 15 15-6.7 15-15-6.7-15-15-15zM96.3 86.8l-19.5 16.8M78.4 129.5l18.6 9.8zM117.6 124.7c-1.8 0-3.7.3-5.5.7-10.9 3-17.4 14.4-14.4 25.3 1.5 5.3 4.9 9.7 9.7 12.4 3.1 1.8 6.6 2.7 10.1 2.7 1.9 0 3.7-.3 5.5-.8 10.9-3 17.4-14.4 14.4-25.3-2.4-8.8-10.6-15-19.8-15z"/>
</svg>