<svg id="gateway" xmlns="http://www.w3.org/2000/svg" viewBox="0 0 172.5 172.7">
	<path id="gateway_fill" d="M86.2 50.2c-20 0-36.2 16.2-36.2 36.2 0 20 16.2 36.2 36.2 36.2 20 0 36.2-16.2 36.2-36.2 0-20-16.2-36.2-36.2-36.2zm0 59.8c-13.1 0-23.7-10.6-23.7-23.8 0-13.1 10.6-23.7 23.7-23.7S110 73.1 110 86.2c-.1 13.2-10.7 23.8-23.8 23.8z" opacity=".42" fill="#005335"/>
	<path d="M135.9 170.3H36.5c-18.9 0-34.2-15.4-34.2-34.2V36.6c0-18.9 15.4-34.2 34.2-34.2H136c18.9 0 34.2 15.4 34.2 34.2v99.5c0 18.9-15.4 34.2-34.3 34.2z" fill="none" stroke="#005335" stroke-width="4" stroke-linecap="round" stroke-linejoin="round" stroke-miterlimit="10" />
	<path d="M86.2 122.6c-20 0-36.2-16.2-36.2-36.2s16.2-36.2 36.2-36.2 36.2 16.2 36.2 36.2-16.2 36.2-36.2 36.2z" fill="none" stroke="#005335" stroke-width="4" stroke-linecap="round" stroke-linejoin="round" stroke-miterlimit="10" />
	<path d="M86.2 112c-14.1 0-25.7-11.5-25.7-25.7 0-14.1 11.5-25.7 25.7-25.7s25.7 11.5 25.7 25.7S100.3 112 86.2 112z" fill="none" stroke="#005335" stroke-width="4" stroke-linecap="round" stroke-linejoin="round" stroke-miterlimit="10" />
</svg>