<svg xmlns="http://www.w3.org/2000/svg" viewBox="0 0 94.5 173">
	<path d="M71.1 3.8l-3.7 4.6c-1 1.3-2.6 2.1-4.3 2.1H35c-1.6 0-3.2-.7-4.2-1.9l-4.1-4.7" fill="none" stroke="#005335" stroke-width="4" stroke-linecap="round" stroke-linejoin="round" stroke-miterlimit="10"/>
	<path d="M47.2 142.1c-5.1 0-9.2 4.1-9.2 9.2s4.1 9.2 9.2 9.2 9.2-4.1 9.2-9.2c-.1-5.1-4.2-9.2-9.2-9.2z" fill="none" stroke="#005335" stroke-width="4" stroke-miterlimit="10" />
	<path d="M77.2 2.6H17.1c-8 0-14.6 6.5-14.6 14.6v138.6c0 8.1 6.6 14.7 14.7 14.7h60.1c8.1 0 14.7-6.6 14.7-14.7V17.2c-.1-8.1-6.7-14.6-14.8-14.6z" fill="none" stroke="#005335" stroke-width="4" stroke-miterlimit="10" />
</svg>