<svg id="圖層_1" xmlns="http://www.w3.org/2000/svg" viewBox="0 0 43.9 45.6"><style>.st0{fill:#005335}</style><path class="st0" d="M39.9.5H4C2 .5.4 2.1.4 4.1v17.6c0 1.9 1.5 3.5 3.4 3.6h36.4c1.9-.1 3.3-1.7 3.4-3.6V4.1c-.1-2-1.7-3.6-3.7-3.6zm1.4 21.2c0 .8-.6 1.4-1.4 1.4H4c-.8 0-1.4-.6-1.4-1.4V4.1c0-.8.6-1.4 1.4-1.4h35.9c.8 0 1.4.6 1.4 1.4v17.6z"/><path class="st0" d="M37.3 19c0-.6-.5-1.1-1.1-1.1H8.4c-.6 0-1.1.5-1.1 1.1 0 .6.5 1.1 1.1 1.1h27.8c.6.1 1.1-.4 1.1-1.1zM21.4 28v13.3c0 2.1 1.7 3.8 3.8 3.8 2.1 0 3.8-1.7 3.8-3.7 0-.2 0-1.5-1-2.5-.6-.7-1.5-1-2.6-1-.5 0-.9.4-.9.9s.4.9.9.9c.6 0 1.1.2 1.4.5.5.5.5 1.2.5 1.3 0 1.1-.9 2-2 2s-2-.9-2-2V28c0-.5-.4-.9-.9-.9-.7 0-1 .4-1 .9z"/><path class="st0" d="M24.8 28v5.8c0 2.1 1.7 3.8 3.8 3.8 2.1 0 3.8-1.7 3.8-3.7 0-.2 0-1.5-1-2.5-.6-.7-1.5-1-2.6-1-.5 0-.9.4-.9.9s.4.9.9.9c.6 0 1.1.2 1.4.5.5.5.5 1.2.5 1.3 0 1.1-.9 2-2 2s-2-.9-2-2v-6c0-.5-.4-.9-.9-.9-.6 0-1 .4-1 .9zM19.8 41.3V28c0-.5-.4-.9-.9-.9s-.9.4-.9.9v13.3c0 1.1-.9 2-2 2s-2-.9-2-2c0-.1 0-.8.5-1.3.3-.3.8-.5 1.4-.5.5 0 .9-.4.9-.9s-.4-.9-.9-.9c-1.1 0-2 .3-2.6 1-.9.9-1 2.2-1 2.5 0 2.1 1.7 3.7 3.8 3.7 2 .1 3.7-1.6 3.7-3.6z"/></svg>