<svg xmlns="http://www.w3.org/2000/svg" viewBox="0 0 43.9 45.6"><path d="M15.5 45.5c-2.9 0-5.4-2.3-5.7-5.2 0-.1-.1-.2-.2-.2H3.1c-.9 0-1.8-.5-2.2-1.3-2.2-4.1.5-6.5 1.8-7.7.5-.5 1-.9 1.3-1.3v-.1c.9-1.5 1.3-5.1 1.5-7.3l.1-1c.5-3.3 1.6-8.1 4.6-12 1.9-2.6 4.5-4.5 7.3-5.4.1 0 .1-.1.1-.2C18 1.7 19.8.1 22 .1c2.1 0 4 1.5 4.4 3.6 0 .1.1.1.1.2 2.9.9 5.3 2.8 7.3 5.4 2.9 3.9 4.1 8.7 4.6 12v.1l.1.9c.2 2.2.5 5.8 1.5 7.3l.1.1c.2.4.7.9 1.2 1.3 1.3 1.1 4 3.5 1.8 7.7-.4.8-1.3 1.3-2.2 1.3H21.3c-.1 0-.2.1-.2.2-.2 3-2.7 5.3-5.6 5.3zm-3.2-5.4c-.1 0-.1 0-.1.1 0 0-.1.1 0 .2.3 1.7 1.7 2.9 3.4 2.9s3.1-1.2 3.4-2.9v-.2l-.1-.1h-6.6zm6.6-34.3c-2.7.7-5.1 2.3-6.9 4.8-2.6 3.5-3.7 7.9-4.1 11l-.1.9c-.3 3.4-.7 6.5-1.8 8.3-.4.8-1.1 1.4-1.8 2-1.5 1.4-2.5 2.5-1.3 4.9 0 .1.1.1.2.1h37.6c.1 0 .2-.1.2-.1 1.3-2.4.3-3.5-1.3-4.9-.6-.6-1.3-1.1-1.7-1.9-1.1-1.8-1.5-4.9-1.8-8.3 0-.3-.1-.6-.1-.9-.4-3.1-1.5-7.4-4.1-11C30 8.2 27.7 6.5 25 5.9l-.9-.2V4.5c0-1.2-1-2.1-2.1-2.1-1.2 0-2.1 1-2.1 2.1v1.1l-1 .2z" fill="#005335"/></svg>