<svg id="圖層_1" xmlns="http://www.w3.org/2000/svg" viewBox="0 0 41.8 45.6"><style>.st0{fill:#005335}</style><path class="st0" d="M21 6.4C14.1 6.4 9.2 11.5 8.4 17c-.5 3.7.7 7.2 3.2 10 2.2 2.3 3.4 6.5 3.4 9.7v5c0 2 1.7 3.7 3.8 3.7h4.8c2.1 0 3.8-1.6 3.8-3.7v-5c0-3.3 1.1-7.4 3.2-9.5 2.3-2.3 3.5-5.3 3.5-8.4C33.8 11.9 28 6.4 21 6.4zm4.3 35.3c0 1-.8 1.7-1.8 1.7h-4.8c-1 0-1.8-.8-1.8-1.7v-2.2h8.4v2.2zM29 25.9c-2.5 2.5-3.8 7.1-3.8 10.9v.9h-8.4v-.9c0-3.6-1.5-8.3-3.9-11-2.2-2.3-3.1-5.3-2.7-8.4.7-4.6 5-9 10.8-9 6 0 10.9 4.7 10.9 10.4-.1 2.6-1.1 5.1-2.9 7.1zM21 .1c.5 0 1 .4 1 1v2.7c0 .5-.4 1-1 1-.5 0-1-.4-1-1V1.1c0-.5.5-1 1-1zM33 9.2c.4.4 1 .4 1.4 0l2-1.9c.4-.4.4-1 0-1.4-.4-.4-1-.4-1.4 0l-2 1.9c-.4.4-.4 1 0 1.4zM37.6 19.8h2.9c.5 0 1 .4 1 1 0 .5-.4 1-1 1h-2.9c-.5 0-1-.4-1-1s.4-1 1-1zM1.4 19.8h2.9c.5 0 1 .4 1 1 0 .5-.4 1-1 1H1.4c-.5 0-1-.4-1-1s.4-1 1-1zM5.5 5.9c-.4.4-.4 1 0 1.4l2 1.9c.4.4 1 .4 1.4 0 .4-.4.4-1 0-1.4l-2-1.9c-.4-.4-1-.4-1.4 0z"/></svg>