<svg xmlns="http://www.w3.org/2000/svg" viewBox="0 0 38 45.7"><style>.st0{fill:#005335}</style><path class="st0" d="M16.8 29.4c0-2.3-1.9-4.2-4.2-4.2s-4.2 1.9-4.2 4.2c0 1.3.6 2.6 1.7 3.4l-.7 5.9c0 .3.1.6.3.8s.5.3.8.3h4.2c.3 0 .6-.1.8-.3s.3-.5.3-.8l-.7-5.9c.9-.6 1.7-1.5 1.7-3.4zm-3.3 1.9c-.4.2-.6.6-.6 1.1l.6 5.4h-1.8l.6-5.4c0-.4-.2-.9-.6-1.1-.7-.4-1.2-1.1-1.2-1.9 0-1.1.9-2.1 2.1-2.1s2.1.9 2.1 2.1c0 1.2-.3 1.5-1.2 1.9z"/><path class="st0" d="M36.7 12.7H25.2V4.4c0-2.3-1.9-4.2-4.2-4.2H4.4C2.1.2.2 2.1.2 4.4v36.9c0 2.3 1.9 4.2 4.2 4.2h16.7c2.3 0 4.2-1.9 4.2-4.2V21.1h11.5c.6 0 1-.5 1-1v-6.4c0-.5-.5-1-1.1-1zM23.2 41.2c0 1.1-.9 2.1-2.1 2.1H4.4c-1.1 0-2.1-.9-2.1-2.1V4.4c0-1.1.9-2.1 2.1-2.1h16.7c1.1 0 2.1.9 2.1 2.1v8.3h-5.8c-1.2-1.3-2.8-2.1-4.6-2.1-3.4 0-6.3 2.8-6.3 6.2S9.3 23 12.8 23c1.8 0 3.4-.8 4.6-2.1h5.8v20.3zm12.5-22.3H16.9c-.3 0-.6.2-.8.4-.8 1.1-2 1.7-3.3 1.7-2.3 0-4.2-1.9-4.2-4.2s1.9-4.2 4.2-4.2c1.3 0 2.5.6 3.3 1.7.2.3.5.4.8.4h18.8v4.2z"/></svg>