<svg id="圖層_1" xmlns="http://www.w3.org/2000/svg" viewBox="0 0 50.4 45.8"><style>.st0{fill:#005335}</style><path class="st0" d="M1.2 45.6c-.6 0-1-.5-1-1V32.3c0-.6.5-1 1-1h5.3c.6 0 1 .4 1 1v3.1c0 .2.1.3.3.3h.3c.1 0 .2 0 .2-.1l2-3c.1-.1.1-.2 0-.3-.8-1-1.1-2.1-1.1-3.3 0-1.2.4-2.3 1.1-3.3l1.4-1.8c0-.1.1-.2.1-.2 0-.1-.1-.2-.1-.2l-5.2-2.9c-1.7-1-2.7-2.8-2.7-4.7 0-1.1.3-2.2.8-2.7l6.9-9.9c1.3-2 3.2-3 5.3-3 1 0 2 .3 2.9.8l30.2 17.2c.3.2.5.5.5.9s-.2.7-.6.9l-4.7 2.4c-.1.1-.2.2-.2.3.1.6.2 1.2.2 1.7 0 4.9-4 8.9-8.9 8.9h-.5c-.1 0-.2.1-.3.2l-1 2c-.1.3-.4.4-.6.5h-.3c-.2 0-.4 0-.5-.1l-8-4.7h-.1c-.1 0-.2.1-.3.1L23 33.6c-1 1.7-2.9 2.8-4.9 2.8-.4 0-.8-.1-1.2-.2h-.1c-.1 0-.2 0-.2.1l-2.2 3.2c-1.4 2.1-3.8 3.4-6.3 3.4h-.3c-.2 0-.3.1-.3.3v1.3c0 .6-.5 1-1 1H1.2zm1.4-12.3c-.2 0-.3.1-.3.3v9.6c0 .2.1.3.3.3h2.6c.2 0 .3-.1.3-.3v-9.6c0-.2-.1-.3-.3-.3H2.6zm5.2 4.4c-.2 0-.3.1-.3.3v2.6c0 .2.1.3.3.3h.3c1.9 0 3.6-.9 4.6-2.5l1.9-2.8c0-.1.1-.1 0-.2 0-.1-.1-.1-.1-.2l-2.3-1.4h-.1c-.1 0-.2 0-.2.1L10 36.6c-.4.7-1.2 1-1.9 1h-.3zM9.6 9.4c-.1 0-.2 0-.2.1l-3.1 4.3c-.4.6-.6 1.2-.6 2 0 1.2.7 2.3 1.7 2.9l25.3 14.6h.2c.1 0 .1-.1.2-.1l3.9-7.8c.1-.1 0-.3-.1-.4L9.8 9.4h-.2zm4.1 15.3c-.1 0-.2 0-.2.1l-1.6 2.1c-.4.6-.7 1.3-.7 2 0 1.2.6 2.3 1.6 2.9l3.3 2c.5.3 1.2.5 1.8.5 1.3 0 2.6-.7 3.2-1.7l1.4-2.4c0-.1.1-.1 0-.2 0-.1-.1-.1-.1-.2l-8.7-5c.1-.1 0-.1 0-.1zm28.9-1.2h-.1l-3.1 1.9c-.1 0-.1.1-.1.1l-2.5 5.1v.3c.1.1.1.1.2.1 3.4-.5 6-3.4 6-6.8V23.6c0-.1-.1-.2-.1-.2-.2.2-.3.1-.3.1zM16.5 2.2c-1.3 0-2.5.6-3.3 1.7l-2.3 3.4c0 .1-.1.2 0 .2s.1.1.1.2l27.3 15.7h.2l7.9-4.3c.1 0 .2-.1.2-.3 0-.1-.1-.2-.1-.3l-28.1-16c-.5-.1-1.2-.3-1.9-.3z"/><circle class="st0" cx="30.5" cy="27.1" r="1"/></svg>