<svg id="圖層_1" xmlns="http://www.w3.org/2000/svg" viewBox="0 0 33 45.6"><style>.st0{fill:#005335}</style><path class="st0" d="M29.2.1H3.8C1.8.1.1 1.7.1 3.8v35.7c0 1.9 1.5 3.5 3.4 3.6v1.2c0 .6.5 1.1 1.1 1.1s1.1-.5 1.1-1.1v-1.1h21.5v1.1c0 .6.5 1.1 1.1 1.1s1.1-.5 1.1-1.1v-1.2c1.9-.1 3.4-1.7 3.4-3.6V3.8c.1-2-1.6-3.7-3.6-3.7zm1.4 39.4c0 .8-.6 1.4-1.4 1.4H3.8c-.8 0-1.4-.6-1.4-1.4V3.8c0-.8.6-1.4 1.4-1.4h25.4c.8 0 1.4.6 1.4 1.4v35.7z"/><path class="st0" d="M25 12.7c-.6 0-1.1.5-1.1 1.1v6.8c0 .6.5 1.1 1.1 1.1s1.1-.5 1.1-1.1v-6.8c0-.6-.5-1.1-1.1-1.1z"/></svg>