<svg id="圖層_1" xmlns="http://www.w3.org/2000/svg" viewBox="0 0 41.8 45.6"><style>.st0{fill:#005335}</style><path class="st0" d="M8.3 9h3.4c.8 0 1.5-.7 1.5-1.5V6.2c0-.8-.7-1.5-1.5-1.5H8.3c-.8 0-1.5.7-1.5 1.5v1.3c0 .9.7 1.5 1.5 1.5zm-.2-2.8c0-.1.1-.2.2-.2h3.4c.1 0 .2.1.2.2v1.3c0 .1-.1.2-.2.2H8.3c-.1 0-.2-.1-.2-.2V6.2zM25 9.2c1.3 0 2.3-1 2.3-2.3 0-1.3-1-2.3-2.3-2.3-1.3 0-2.3 1-2.3 2.3s1 2.3 2.3 2.3zm0-3.4c.6 0 1.1.5 1.1 1.1 0 .6-.5 1.1-1.1 1.1-.6 0-1.1-.5-1.1-1.1s.5-1.1 1.1-1.1zM33.6 9.2c1.3 0 2.3-1 2.3-2.3 0-1.3-1-2.3-2.3-2.3-1.3 0-2.3 1-2.3 2.3s1.1 2.3 2.3 2.3zm0-3.4c.6 0 1.1.5 1.1 1.1 0 .6-.5 1.1-1.1 1.1-.6 0-1.1-.5-1.1-1.1s.5-1.1 1.1-1.1z"/><path class="st0" d="M35.4.1h-29C2.9.1.1 2.9.1 6.4v32.7c0 3.5 2.8 6.3 6.3 6.3h29c3.5 0 6.3-2.8 6.3-6.3V6.4c.1-3.5-2.8-6.3-6.3-6.3zm-29 1.7h29C38 1.8 40 3.9 40 6.4v4.4H1.8V6.4c0-2.5 2.1-4.6 4.6-4.6zm29 42h-29c-2.6 0-4.6-2.1-4.6-4.6V12.5H40v26.6c0 2.6-2 4.7-4.6 4.7z"/><path class="st0" d="M20.9 38.5c-4.4 0-8.3-2.9-9.6-7.1-.3-.9-.4-1.9-.4-2.8 0-5.5 4.5-10 10-10 4.7 0 8.8 3.3 9.8 7.9v.1c.1.6.2 1.3.2 1.9 0 5.5-4.5 10-10 10zm-6.2-5.6c1.4 2 3.7 3.2 6.2 3.2 4.2 0 7.7-3.4 7.7-7.7v-.7h-.1c-2.3 0-3.7 1.1-5.3 2.4-1.7 1.4-3.7 2.9-6.7 2.9-.6.1-1.2.1-1.8-.1zm-1.3-2.8c1.2.4 2.2.7 3 .7 2.3 0 3.7-1.1 5.3-2.4 1.6-1.3 3.5-2.8 6.3-2.9-1.2-2.8-4-4.6-7-4.6-4.2 0-7.7 3.4-7.7 7.7 0 .4 0 1 .1 1.5z"/></svg>