<svg id="圖層_1" xmlns="http://www.w3.org/2000/svg" viewBox="0 0 41.8 45.6"><style>.st0{fill:#005335}</style><path class="st0" d="M39.7 43.5h1.1c.8 0 1.3.7 1 1.3-.2.6-1.1.6-1.3.6H.9c-.5-.1-.9-.5-.8-1 0-.5.4-.9.9-.9h1.2v-.6V1.7v-.5c0-.7.4-1 1.1-1.1H38.5c.3 0 .6.1.9.2.4.2.5.6.5 1v41.4c-.2.2-.2.5-.2.8zm-2-41.4H21.9v19.7h15.8V2.1zM19.9 43.5V23.9H4.1v19.6h15.8zm2-19.7v19.6h15.8V23.8H21.9zM4.1 2.1v19.8h15.8V2.1H4.1z"/><path class="st0" d="M16.8 4c.6 0 .9.2 1 .5.2.3.2.7 0 1l-.3.3C15 8.4 12.4 11 9.9 13.5c-.2.2-.6.4-.9.4-.8 0-1.1-.9-.7-1.5l.3-.3c2.4-2.6 5-5.1 7.5-7.6.2-.2.5-.4.7-.5zM7.1 10c-.8 0-1.2-.8-.9-1.5.1-.2.2-.3.3-.4C7.7 6.9 9 5.7 10.2 4.5c.4-.4.9-.5 1.3-.3.5.3.7.9.4 1.4-.1.1-.2.2-.2.3L8 9.6c-.3.2-.6.3-.9.4z"/></svg>