<?xml version="1.0" encoding="utf-8"?>
<!-- Generator: Adobe Illustrator 21.0.2, SVG Export Plug-In . SVG Version: 6.00 Build 0)  -->
<svg version="1.1" id="圖層_1" xmlns="http://www.w3.org/2000/svg" xmlns:xlink="http://www.w3.org/1999/xlink" x="0px" y="0px"
	 viewBox="0 0 31 24" style="enable-background:new 0 0 31 24;" xml:space="preserve">
<style type="text/css">
	.st0{fill:#005335;}
</style>
<g>
	<g>
		<g>
			<path class="st0" d="M26.8,0.6H4.2c-2,0-3.7,1.6-3.7,3.7v15.5c0,2,1.6,3.7,3.7,3.7h22.7c2,0,3.7-1.6,3.7-3.7V4.3
				C30.5,2.2,28.9,0.6,26.8,0.6z M28.8,19.7c0,1.1-0.9,2-2,2H4.2c-1.1,0-2-0.9-2-2V4.3c0-1.1,0.9-2,2-2h22.7c1.1,0,2,0.9,2,2
				L28.8,19.7L28.8,19.7z"/>
			<path class="st0" d="M19.4,11.8l7.3-6.6c0.3-0.3,0.4-0.8,0.1-1.2C26.5,3.7,26,3.7,25.6,4l-10.1,9.1l-2-1.8c0,0,0,0,0,0
				c0,0-0.1-0.1-0.1-0.1L5.4,4C5,3.7,4.5,3.7,4.2,4S3.9,4.9,4.2,5.2l7.4,6.6l-7.4,6.9c-0.3,0.3-0.4,0.8,0,1.2
				c0.2,0.2,0.4,0.3,0.6,0.3c0.2,0,0.4-0.1,0.6-0.2l7.5-7l2,1.8c0.2,0.1,0.4,0.2,0.6,0.2s0.4-0.1,0.6-0.2l2.1-1.9l7.5,7.1
				c0.2,0.2,0.4,0.2,0.6,0.2c0.2,0,0.4-0.1,0.6-0.3c0.3-0.3,0.3-0.9,0-1.2L19.4,11.8z"/>
		</g>
	</g>
</g>
</svg>
