<?xml version="1.0" encoding="utf-8"?>
<!-- Generator: Adobe Illustrator 21.0.2, SVG Export Plug-In . SVG Version: 6.00 Build 0)  -->
<svg version="1.1" id="圖層_1" xmlns="http://www.w3.org/2000/svg" xmlns:xlink="http://www.w3.org/1999/xlink" x="0px" y="0px"
	 viewBox="0 0 41 51" style="enable-background:new 0 0 41 51;" xml:space="preserve">
	<style type="text/css">
		.st0{opacity:0.8;fill:#FFFFFF;}
		.st1{fill:#005335;}
	</style>
	<path class="st0" d="M20.5,0.6c-11,0-20,9-20,20c0,1.3,0.1,2.5,0.4,3.8c0,0.1,0.1,0.3,0.1,0.7c0.3,1.3,0.8,2.7,1.3,3.9
		C4.5,34,9.2,41.8,19.6,50.1c0.3,0.2,0.6,0.3,0.9,0.3c0.3,0,0.6-0.1,0.9-0.3C31.8,41.8,36.5,34,38.7,28.9c0.6-1.3,1-2.6,1.3-3.9
		c0.1-0.4,0.1-0.6,0.1-0.7c0.2-1.2,0.4-2.5,0.4-3.8C40.5,9.5,31.5,0.6,20.5,0.6z"/>
	<polygon class="st1" points="22.3,25.9 22.3,28.5 31.3,19.5 22.1,10.3 14.5,17.9 14.5,21 23.6,12.1 23.6,17 18.4,22.1 18.4,24.7 
		27.4,15.8 27.4,20.8 22.3,25.9 	"/>
	<polygon class="st1" points="9.7,19.3 18.9,28.5 26.5,20.9 26.5,17.8 17.4,26.7 17.4,21.8 22.6,16.6 22.6,14.1 13.6,23 13.6,18 
		18.7,12.9 18.7,10.3 9.7,19.3 	"/>
</svg>
