<?xml version="1.0" encoding="utf-8"?>
<!-- Generator: Adobe Illustrator 21.0.2, SVG Export Plug-In . SVG Version: 6.00 Build 0)  -->
<svg version="1.1" id="圖層_1" xmlns="http://www.w3.org/2000/svg" xmlns:xlink="http://www.w3.org/1999/xlink" x="0px" y="0px"
	 viewBox="0 0 30 30" style="enable-background:new 0 0 30 30;" xml:space="preserve">
<style type="text/css">
	.st0{fill:#005335;}
</style>
<path class="st0" d="M23.7,18.6c-0.6-0.6-1.4-1-2.1-1c-0.8,0-1.5,0.3-2.2,1l-2,2c-0.2-0.1-0.3-0.2-0.5-0.3c-0.2-0.1-0.4-0.2-0.6-0.3
	c-1.9-1.2-3.6-2.7-5.2-4.7c-0.8-1-1.3-1.8-1.7-2.7c0.5-0.5,1-1,1.5-1.4c0.2-0.2,0.4-0.4,0.5-0.5c1.3-1.3,1.3-3.1,0-4.4L9.6,4.4
	C9.4,4.2,9.2,4,9.1,3.8C8.7,3.5,8.3,3,7.9,2.7C7.2,2.1,6.5,1.7,5.7,1.7S4.2,2.1,3.6,2.7c0,0,0,0,0,0L1.4,4.9C0.6,5.7,0.1,6.6,0,7.8
	c-0.2,1.8,0.4,3.6,0.8,4.7c1,2.8,2.6,5.3,4.8,8.1c2.8,3.3,6.1,5.9,9.9,7.8c1.5,0.7,3.4,1.5,5.6,1.6c0.1,0,0.3,0,0.4,0
	c1.5,0,2.7-0.5,3.7-1.6c0,0,0,0,0,0c0.3-0.4,0.7-0.8,1.1-1.1c0.3-0.3,0.6-0.5,0.8-0.8c0.6-0.7,1-1.4,1-2.2c0-0.8-0.3-1.5-1-2.2
	L23.7,18.6z M26,25.3C26,25.3,26,25.3,26,25.3c-0.2,0.3-0.5,0.5-0.8,0.8c-0.4,0.4-0.8,0.8-1.2,1.3c-0.6,0.7-1.4,1-2.4,1
	c-0.1,0-0.2,0-0.3,0c-1.9-0.1-3.6-0.9-4.9-1.5c-3.6-1.7-6.7-4.2-9.3-7.3c-2.2-2.6-3.6-5-4.6-7.6c-0.6-1.6-0.8-2.8-0.7-4
	c0.1-0.7,0.3-1.4,0.9-1.9l2.2-2.2c0.3-0.3,0.6-0.4,1-0.4c0.4,0,0.7,0.2,0.9,0.4c0,0,0,0,0,0C7.1,4.3,7.4,4.6,7.8,5
	C8,5.2,8.2,5.4,8.4,5.7l1.7,1.7c0.7,0.7,0.7,1.3,0,2C10,9.5,9.8,9.7,9.6,9.9c-0.5,0.5-1,1.1-1.6,1.5c0,0,0,0,0,0
	c-0.5,0.5-0.4,1.1-0.3,1.4c0,0,0,0,0,0.1c0.4,1.1,1.1,2.1,2,3.3l0,0c1.7,2.2,3.6,3.8,5.6,5.1c0.3,0.2,0.5,0.3,0.8,0.4
	c0.2,0.1,0.4,0.2,0.6,0.3c0,0,0.1,0,0.1,0c0.2,0.1,0.4,0.2,0.6,0.2c0.5,0,0.9-0.3,1-0.4l2.2-2.2c0.2-0.2,0.6-0.5,1-0.5
	c0.4,0,0.7,0.2,0.9,0.5c0,0,0,0,0,0l3.5,3.5C26.6,23.9,26.6,24.6,26,25.3z"/>
<path class="st0" d="M16.2,7.1c1.7,0.3,3.2,1.1,4.4,2.3c1.2,1.2,2,2.7,2.3,4.4c0.1,0.4,0.4,0.7,0.8,0.7c0.1,0,0.1,0,0.1,0
	c0.5-0.1,0.8-0.5,0.7-1c-0.3-2-1.3-3.8-2.7-5.3s-3.3-2.4-5.3-2.7c-0.5-0.1-0.9,0.2-1,0.7S15.7,7.1,16.2,7.1z"/>
<path class="st0" d="M30,13.2c-0.6-3.3-2.1-6.3-4.5-8.7S20,0.6,16.7,0c-0.5-0.1-0.9,0.2-1,0.7c-0.1,0.5,0.2,0.9,0.7,1
	c3,0.5,5.6,1.9,7.8,4c2.1,2.1,3.5,4.8,4,7.8c0.1,0.4,0.4,0.7,0.8,0.7c0.1,0,0.1,0,0.1,0C29.7,14.1,30,13.7,30,13.2z"/>
</svg>
